#tb 0: 71/500
#media_type 0: video
#codec_id 0: rawvideo
#dimensions 0: 188x128
#sar 0: 0/1
0,          0,          0,        1,    36096, 0xab1c53c1
0,          1,          1,        1,    36096, 0x8b598ff3
0,          2,          2,        1,    36096, 0xe9a5f3eb
0,          3,          3,        1,    36096, 0x10584b30
0,          4,          4,        1,    36096, 0x19d8c5d2
0,          5,          5,        1,    36096, 0x43a453b9
0,          6,          6,        1,    36096, 0xb32db13b
0,          7,          7,        1,    36096, 0xf117e7b3
0,          8,          8,        1,    36096, 0x9171fb33
0,          9,          9,        1,    36096, 0xdf84081c
0,         10,         10,        1,    36096, 0xc9d9527e
0,         11,         11,        1,    36096, 0x72fa295e
0,         12,         12,        1,    36096, 0xce02060e
0,         13,         13,        1,    36096, 0x31f5fdbd
0,         14,         14,        1,    36096, 0x4179dc07
0,         15,         15,        1,    36096, 0xf250c03f
0,         16,         16,        1,    36096, 0xc4aca7c5
0,         17,         17,        1,    36096, 0xd9b1837f
0,         18,         18,        1,    36096, 0x0af164ef
0,         19,         19,        1,    36096, 0x90123fcd
0,         20,         20,        1,    36096, 0x60392815
0,         21,         21,        1,    36096, 0x7a7b0ac9
0,         22,         22,        1,    36096, 0x36c1fe9c
0,         23,         23,        1,    36096, 0x50bed8a4
0,         24,         24,        1,    36096, 0x10f3b998
0,         25,         25,        1,    36096, 0x18e5b516
0,         26,         26,        1,    36096, 0x860597dc
0,         27,         27,        1,    36096, 0x05488146
0,         28,         28,        1,    36096, 0xac577cec
0,         29,         29,        1,    36096, 0xc9f95550
0,         30,         30,        1,    36096, 0xa0c95270
0,         31,         31,        1,    36096, 0x977c5bf2
0,         32,         32,        1,    36096, 0xc9f95550
0,         33,         33,        1,    36096, 0xa0c95270
0,         34,         34,        1,    36096, 0x977c5bf2
0,         35,         35,        1,    36096, 0xc9f95550
0,         36,         36,        1,    36096, 0xa0c95270
0,         37,         37,        1,    36096, 0x977c5bf2
0,         38,         38,        1,    36096, 0xc9f95550
0,         39,         39,        1,    36096, 0xa0c95270
